# xmcd
#
# Track frame offsets: 
#        150
#        29528
#        77343
#        103475
#        132733
#        154958
#
# Disc length: 2380 seconds
#
# Revision: 1
# Processed by: cddbd v1.5.2PL0 Copyright (c) Steve Scherf et al.
# Submitted via: ExactAudioCopy v0.99pb4
#
DISCID=4f094a06
DTITLE=Lem Winchester - Another Opus
DYEAR=1960
DGENRE=Jazz
TTITLE0=Another Opus
TTITLE1=Blues Prayer
TTITLE2=The Meetin'
TTITLE3=Like Someone In Love
TTITLE4=Both Barrels
TTITLE5=Lid Flippin'
EXTD=YEAR: 1960
EXTT0=
EXTT1=
EXTT2=
EXTT3=
EXTT4=
EXTT5=
PLAYORDER=
